<?xml version="1.0" encoding="UTF-8"?>
<!DOCTYPE svg
PUBLIC "-//W3C//DTD SVG 1.1//EN"
       "http://www.w3.org/Graphics/SVG/1.1/DTD/svg11.dtd">
<svg viewBox="25 -5 971 725" width="946px" height="730px" xmlns="http://www.w3.org/2000/svg" version="1.1">
   <line x1="260" y1="250" x2="250" y2="250" style="stroke:#0b0;stroke-width:1;"/>
   <line x1="125" y1="40" x2="115" y2="40" style="stroke:#0b0;stroke-width:1;"/>
   <line x1="250" y1="250" x2="125" y2="40" style="stroke:#0b0;stroke-width:1;"/>
   <line x1="252.5" y1="250" x2="256.03553390593" y2="253.53553390593" style="stroke:#0b0;stroke-width:2;"/>
   <line x1="252.5" y1="250" x2="256.03553390593" y2="246.46446609407" style="stroke:#0b0;stroke-width:2;"/>
   <line x1="120" y1="40" x2="123.53553390593" y2="43.535533905933" style="stroke:#0b0;stroke-width:2;"/>
   <line x1="120" y1="40" x2="123.53553390593" y2="36.464466094067" style="stroke:#0b0;stroke-width:2;"/>
   <line x1="377" y1="270" x2="387" y2="270" style="stroke:#cb0;stroke-width:1;"/>
   <line x1="830" y1="40" x2="840" y2="40" style="stroke:#cb0;stroke-width:1;"/>
   <line x1="387" y1="270" x2="830" y2="40" style="stroke:#cb0;stroke-width:1;"/>
   <line x1="384.5" y1="270" x2="380.96446609407" y2="273.53553390593" style="stroke:#cb0;stroke-width:2;"/>
   <line x1="384.5" y1="270" x2="380.96446609407" y2="266.46446609407" style="stroke:#cb0;stroke-width:2;"/>
   <line x1="835" y1="40" x2="831.46446609407" y2="43.535533905933" style="stroke:#cb0;stroke-width:2;"/>
   <line x1="835" y1="40" x2="831.46446609407" y2="36.464466094067" style="stroke:#cb0;stroke-width:2;"/>
   <line x1="570" y1="100" x2="560" y2="100" style="stroke:#bbb;stroke-width:1;"/>
   <line x1="125" y1="40" x2="115" y2="40" style="stroke:#bbb;stroke-width:1;"/>
   <line x1="560" y1="100" x2="125" y2="40" style="stroke:#bbb;stroke-width:1;"/>
   <line x1="562.5" y1="100" x2="566.03553390593" y2="103.53553390593" style="stroke:#bbb;stroke-width:2;"/>
   <line x1="562.5" y1="100" x2="566.03553390593" y2="96.464466094067" style="stroke:#bbb;stroke-width:2;"/>
   <line x1="120" y1="40" x2="123.53553390593" y2="43.535533905933" style="stroke:#bbb;stroke-width:2;"/>
   <line x1="120" y1="40" x2="123.53553390593" y2="36.464466094067" style="stroke:#bbb;stroke-width:2;"/>
   <line x1="702" y1="140" x2="712" y2="140" style="stroke:#bbb;stroke-width:1;"/>
   <line x1="830" y1="40" x2="840" y2="40" style="stroke:#bbb;stroke-width:1;"/>
   <line x1="712" y1="140" x2="830" y2="40" style="stroke:#bbb;stroke-width:1;"/>
   <line x1="709.5" y1="140" x2="705.96446609407" y2="143.53553390593" style="stroke:#bbb;stroke-width:2;"/>
   <line x1="709.5" y1="140" x2="705.96446609407" y2="136.46446609407" style="stroke:#bbb;stroke-width:2;"/>
   <line x1="835" y1="40" x2="831.46446609407" y2="43.535533905933" style="stroke:#bbb;stroke-width:2;"/>
   <line x1="835" y1="40" x2="831.46446609407" y2="36.464466094067" style="stroke:#bbb;stroke-width:2;"/>
   <line x1="280" y1="540" x2="270" y2="540" style="stroke:#0bf;stroke-width:1;"/>
   <line x1="125" y1="40" x2="115" y2="40" style="stroke:#0bf;stroke-width:1;"/>
   <line x1="270" y1="540" x2="125" y2="40" style="stroke:#0bf;stroke-width:1;"/>
   <line x1="272.5" y1="540" x2="276.03553390593" y2="543.53553390593" style="stroke:#0bf;stroke-width:2;"/>
   <line x1="272.5" y1="540" x2="276.03553390593" y2="536.46446609407" style="stroke:#0bf;stroke-width:2;"/>
   <line x1="120" y1="40" x2="123.53553390593" y2="43.535533905933" style="stroke:#0bf;stroke-width:2;"/>
   <line x1="120" y1="40" x2="123.53553390593" y2="36.464466094067" style="stroke:#0bf;stroke-width:2;"/>
   <line x1="394" y1="560" x2="404" y2="560" style="stroke:#b0b;stroke-width:1;"/>
   <line x1="830" y1="40" x2="840" y2="40" style="stroke:#b0b;stroke-width:1;"/>
   <line x1="404" y1="560" x2="830" y2="40" style="stroke:#b0b;stroke-width:1;"/>
   <line x1="401.5" y1="560" x2="397.96446609407" y2="563.53553390593" style="stroke:#b0b;stroke-width:2;"/>
   <line x1="401.5" y1="560" x2="397.96446609407" y2="556.46446609407" style="stroke:#b0b;stroke-width:2;"/>
   <line x1="835" y1="40" x2="831.46446609407" y2="43.535533905933" style="stroke:#b0b;stroke-width:2;"/>
   <line x1="835" y1="40" x2="831.46446609407" y2="36.464466094067" style="stroke:#b0b;stroke-width:2;"/>
   <line x1="530" y1="540" x2="520" y2="540" style="stroke:#0b0;stroke-width:1;"/>
   <line x1="125" y1="40" x2="115" y2="40" style="stroke:#0b0;stroke-width:1;"/>
   <line x1="520" y1="540" x2="125" y2="40" style="stroke:#0b0;stroke-width:1;"/>
   <line x1="522.5" y1="540" x2="526.03553390593" y2="543.53553390593" style="stroke:#0b0;stroke-width:2;"/>
   <line x1="522.5" y1="540" x2="526.03553390593" y2="536.46446609407" style="stroke:#0b0;stroke-width:2;"/>
   <line x1="120" y1="40" x2="123.53553390593" y2="43.535533905933" style="stroke:#0b0;stroke-width:2;"/>
   <line x1="120" y1="40" x2="123.53553390593" y2="36.464466094067" style="stroke:#0b0;stroke-width:2;"/>
   <line x1="647" y1="560" x2="657" y2="560" style="stroke:#0b0;stroke-width:1;"/>
   <line x1="830" y1="40" x2="840" y2="40" style="stroke:#0b0;stroke-width:1;"/>
   <line x1="657" y1="560" x2="830" y2="40" style="stroke:#0b0;stroke-width:1;"/>
   <line x1="654.5" y1="560" x2="650.96446609407" y2="563.53553390593" style="stroke:#0b0;stroke-width:2;"/>
   <line x1="654.5" y1="560" x2="650.96446609407" y2="556.46446609407" style="stroke:#0b0;stroke-width:2;"/>
   <line x1="835" y1="40" x2="831.46446609407" y2="43.535533905933" style="stroke:#0b0;stroke-width:2;"/>
   <line x1="835" y1="40" x2="831.46446609407" y2="36.464466094067" style="stroke:#0b0;stroke-width:2;"/>
   <line x1="550" y1="340" x2="540" y2="340" style="stroke:#c00;stroke-width:1;"/>
   <line x1="125" y1="40" x2="115" y2="40" style="stroke:#c00;stroke-width:1;"/>
   <line x1="540" y1="340" x2="125" y2="40" style="stroke:#c00;stroke-width:1;"/>
   <line x1="542.5" y1="340" x2="546.03553390593" y2="343.53553390593" style="stroke:#c00;stroke-width:2;"/>
   <line x1="542.5" y1="340" x2="546.03553390593" y2="336.46446609407" style="stroke:#c00;stroke-width:2;"/>
   <line x1="120" y1="40" x2="123.53553390593" y2="43.535533905933" style="stroke:#c00;stroke-width:2;"/>
   <line x1="120" y1="40" x2="123.53553390593" y2="36.464466094067" style="stroke:#c00;stroke-width:2;"/>
   <line x1="659" y1="360" x2="669" y2="360" style="stroke:#0bf;stroke-width:1;"/>
   <line x1="830" y1="40" x2="840" y2="40" style="stroke:#0bf;stroke-width:1;"/>
   <line x1="669" y1="360" x2="830" y2="40" style="stroke:#0bf;stroke-width:1;"/>
   <line x1="666.5" y1="360" x2="662.96446609407" y2="363.53553390593" style="stroke:#0bf;stroke-width:2;"/>
   <line x1="666.5" y1="360" x2="662.96446609407" y2="356.46446609407" style="stroke:#0bf;stroke-width:2;"/>
   <line x1="835" y1="40" x2="831.46446609407" y2="43.535533905933" style="stroke:#0bf;stroke-width:2;"/>
   <line x1="835" y1="40" x2="831.46446609407" y2="36.464466094067" style="stroke:#0bf;stroke-width:2;"/>
   <line x1="840" y1="60" x2="830" y2="60" style="stroke:#0bf;stroke-width:1;"/>
   <line x1="125" y1="40" x2="115" y2="40" style="stroke:#0bf;stroke-width:1;"/>
   <line x1="830" y1="60" x2="125" y2="40" style="stroke:#0bf;stroke-width:1;"/>
   <line x1="832.5" y1="60" x2="836.03553390593" y2="63.535533905933" style="stroke:#0bf;stroke-width:2;"/>
   <line x1="832.5" y1="60" x2="836.03553390593" y2="56.464466094067" style="stroke:#0bf;stroke-width:2;"/>
   <line x1="120" y1="40" x2="123.53553390593" y2="43.535533905933" style="stroke:#0bf;stroke-width:2;"/>
   <line x1="120" y1="40" x2="123.53553390593" y2="36.464466094067" style="stroke:#0bf;stroke-width:2;"/>
   <rect width="117" height="20" x="260" y="200" style="fill:#007;stroke:black;"/>
   <text width="117" height="20" x="265" y="214" style="fill:#fff;" font-family="Arial" font-size="16px"> accessories</text>
   <rect width="117" height="20" x="260" y="220" style="fill:#aea;stroke:black;"/>
   <text width="117" height="20" x="265" y="234" style="fill:black;" font-family="Arial" font-size="16px">internalid</text>
   <rect width="117" height="20" x="260" y="240" style="fill:none;stroke:black;"/>
   <text width="117" height="20" x="265" y="254" style="fill:black;" font-family="Arial" font-size="16px">box_id</text>
   <rect width="117" height="20" x="260" y="260" style="fill:none;stroke:black;"/>
   <text width="117" height="20" x="265" y="274" style="fill:black;" font-family="Arial" font-size="16px">nendoroid_id</text>
   <rect width="117" height="20" x="260" y="280" style="fill:none;stroke:black;"/>
   <text width="117" height="20" x="265" y="294" style="fill:black;" font-family="Arial" font-size="16px">type</text>
   <rect width="117" height="20" x="260" y="300" style="fill:none;stroke:black;"/>
   <text width="117" height="20" x="265" y="314" style="fill:black;" font-family="Arial" font-size="16px">main_color</text>
   <rect width="117" height="20" x="260" y="320" style="fill:none;stroke:black;"/>
   <text width="117" height="20" x="265" y="334" style="fill:black;" font-family="Arial" font-size="16px">main_color_hex</text>
   <rect width="117" height="20" x="260" y="340" style="fill:none;stroke:black;"/>
   <text width="117" height="20" x="265" y="354" style="fill:black;" font-family="Arial" font-size="16px">other_color</text>
   <rect width="117" height="20" x="260" y="360" style="fill:none;stroke:black;"/>
   <text width="117" height="20" x="265" y="374" style="fill:black;" font-family="Arial" font-size="16px">other_color_hex</text>
   <rect width="117" height="20" x="260" y="380" style="fill:none;stroke:black;"/>
   <text width="117" height="20" x="265" y="394" style="fill:black;" font-family="Arial" font-size="16px">description</text>
   <rect width="132" height="20" x="570" y="70" style="fill:#007;stroke:black;"/>
   <text width="132" height="20" x="575" y="84" style="fill:#fff;" font-family="Arial" font-size="16px"> body_parts</text>
   <rect width="132" height="20" x="570" y="90" style="fill:#aea;stroke:black;"/>
   <text width="132" height="20" x="575" y="104" style="fill:black;" font-family="Arial" font-size="16px">internalid</text>
   <rect width="132" height="20" x="570" y="110" style="fill:none;stroke:black;"/>
   <text width="132" height="20" x="575" y="124" style="fill:black;" font-family="Arial" font-size="16px">box_id</text>
   <rect width="132" height="20" x="570" y="130" style="fill:none;stroke:black;"/>
   <text width="132" height="20" x="575" y="144" style="fill:black;" font-family="Arial" font-size="16px">nendoroid_id</text>
   <rect width="132" height="20" x="570" y="150" style="fill:none;stroke:black;"/>
   <text width="132" height="20" x="575" y="164" style="fill:black;" font-family="Arial" font-size="16px">part</text>
   <rect width="132" height="20" x="570" y="170" style="fill:none;stroke:black;"/>
   <text width="132" height="20" x="575" y="184" style="fill:black;" font-family="Arial" font-size="16px">main_color</text>
   <rect width="132" height="20" x="570" y="190" style="fill:none;stroke:black;"/>
   <text width="132" height="20" x="575" y="204" style="fill:black;" font-family="Arial" font-size="16px">main_color_hex</text>
   <rect width="132" height="20" x="570" y="210" style="fill:none;stroke:black;"/>
   <text width="132" height="20" x="575" y="224" style="fill:black;" font-family="Arial" font-size="16px">second_color</text>
   <rect width="132" height="20" x="570" y="230" style="fill:none;stroke:black;"/>
   <text width="132" height="20" x="575" y="244" style="fill:black;" font-family="Arial" font-size="16px">second_color_hex</text>
   <rect width="132" height="20" x="570" y="250" style="fill:none;stroke:black;"/>
   <text width="132" height="20" x="575" y="264" style="fill:black;" font-family="Arial" font-size="16px">description</text>
   <rect width="75" height="20" x="40" y="10" style="fill:#007;stroke:black;"/>
   <text width="75" height="20" x="45" y="24" style="fill:#fff;" font-family="Arial" font-size="16px"> boxes</text>
   <rect width="75" height="20" x="40" y="30" style="fill:#aea;stroke:black;"/>
   <text width="75" height="20" x="45" y="44" style="fill:black;" font-family="Arial" font-size="16px">internalid</text>
   <rect width="75" height="20" x="40" y="50" style="fill:none;stroke:black;"/>
   <text width="75" height="20" x="45" y="64" style="fill:black;" font-family="Arial" font-size="16px">name</text>
   <rect width="75" height="20" x="40" y="70" style="fill:none;stroke:black;"/>
   <text width="75" height="20" x="45" y="84" style="fill:black;" font-family="Arial" font-size="16px">type</text>
   <rect width="114" height="20" x="280" y="490" style="fill:#007;stroke:black;"/>
   <text width="114" height="20" x="285" y="504" style="fill:#fff;" font-family="Arial" font-size="16px"> faces</text>
   <rect width="114" height="20" x="280" y="510" style="fill:#aea;stroke:black;"/>
   <text width="114" height="20" x="285" y="524" style="fill:black;" font-family="Arial" font-size="16px">internalid</text>
   <rect width="114" height="20" x="280" y="530" style="fill:none;stroke:black;"/>
   <text width="114" height="20" x="285" y="544" style="fill:black;" font-family="Arial" font-size="16px">box_id</text>
   <rect width="114" height="20" x="280" y="550" style="fill:none;stroke:black;"/>
   <text width="114" height="20" x="285" y="564" style="fill:black;" font-family="Arial" font-size="16px">nendoroid_id</text>
   <rect width="114" height="20" x="280" y="570" style="fill:none;stroke:black;"/>
   <text width="114" height="20" x="285" y="584" style="fill:black;" font-family="Arial" font-size="16px">eyes</text>
   <rect width="114" height="20" x="280" y="590" style="fill:none;stroke:black;"/>
   <text width="114" height="20" x="285" y="604" style="fill:black;" font-family="Arial" font-size="16px">eyes_color</text>
   <rect width="114" height="20" x="280" y="610" style="fill:none;stroke:black;"/>
   <text width="114" height="20" x="285" y="624" style="fill:black;" font-family="Arial" font-size="16px">eyes_color_hex</text>
   <rect width="114" height="20" x="280" y="630" style="fill:none;stroke:black;"/>
   <text width="114" height="20" x="285" y="644" style="fill:black;" font-family="Arial" font-size="16px">mouth</text>
   <rect width="114" height="20" x="280" y="650" style="fill:none;stroke:black;"/>
   <text width="114" height="20" x="285" y="664" style="fill:black;" font-family="Arial" font-size="16px">skin_color</text>
   <rect width="114" height="20" x="280" y="670" style="fill:none;stroke:black;"/>
   <text width="114" height="20" x="285" y="684" style="fill:black;" font-family="Arial" font-size="16px">skin_color_hex</text>
   <rect width="114" height="20" x="280" y="690" style="fill:none;stroke:black;"/>
   <text width="114" height="20" x="285" y="704" style="fill:black;" font-family="Arial" font-size="16px">sex</text>
   <rect width="117" height="20" x="530" y="490" style="fill:#007;stroke:black;"/>
   <text width="117" height="20" x="535" y="504" style="fill:#fff;" font-family="Arial" font-size="16px"> hairs</text>
   <rect width="117" height="20" x="530" y="510" style="fill:#aea;stroke:black;"/>
   <text width="117" height="20" x="535" y="524" style="fill:black;" font-family="Arial" font-size="16px">internalid</text>
   <rect width="117" height="20" x="530" y="530" style="fill:none;stroke:black;"/>
   <text width="117" height="20" x="535" y="544" style="fill:black;" font-family="Arial" font-size="16px">box_id</text>
   <rect width="117" height="20" x="530" y="550" style="fill:none;stroke:black;"/>
   <text width="117" height="20" x="535" y="564" style="fill:black;" font-family="Arial" font-size="16px">nendoroid_id</text>
   <rect width="117" height="20" x="530" y="570" style="fill:none;stroke:black;"/>
   <text width="117" height="20" x="535" y="584" style="fill:black;" font-family="Arial" font-size="16px">main_color</text>
   <rect width="117" height="20" x="530" y="590" style="fill:none;stroke:black;"/>
   <text width="117" height="20" x="535" y="604" style="fill:black;" font-family="Arial" font-size="16px">main_color_hex</text>
   <rect width="117" height="20" x="530" y="610" style="fill:none;stroke:black;"/>
   <text width="117" height="20" x="535" y="624" style="fill:black;" font-family="Arial" font-size="16px">other_color</text>
   <rect width="117" height="20" x="530" y="630" style="fill:none;stroke:black;"/>
   <text width="117" height="20" x="535" y="644" style="fill:black;" font-family="Arial" font-size="16px">other_color_hex</text>
   <rect width="117" height="20" x="530" y="650" style="fill:none;stroke:black;"/>
   <text width="117" height="20" x="535" y="664" style="fill:black;" font-family="Arial" font-size="16px">haircut</text>
   <rect width="117" height="20" x="530" y="670" style="fill:none;stroke:black;"/>
   <text width="117" height="20" x="535" y="684" style="fill:black;" font-family="Arial" font-size="16px">description</text>
   <rect width="117" height="20" x="530" y="690" style="fill:none;stroke:black;"/>
   <text width="117" height="20" x="535" y="704" style="fill:black;" font-family="Arial" font-size="16px">frontback</text>
   <rect width="109" height="20" x="550" y="290" style="fill:#007;stroke:black;"/>
   <text width="109" height="20" x="555" y="304" style="fill:#fff;" font-family="Arial" font-size="16px"> hands</text>
   <rect width="109" height="20" x="550" y="310" style="fill:#aea;stroke:black;"/>
   <text width="109" height="20" x="555" y="324" style="fill:black;" font-family="Arial" font-size="16px">internalid</text>
   <rect width="109" height="20" x="550" y="330" style="fill:none;stroke:black;"/>
   <text width="109" height="20" x="555" y="344" style="fill:black;" font-family="Arial" font-size="16px">box_id</text>
   <rect width="109" height="20" x="550" y="350" style="fill:none;stroke:black;"/>
   <text width="109" height="20" x="555" y="364" style="fill:black;" font-family="Arial" font-size="16px">nendoroid_id</text>
   <rect width="109" height="20" x="550" y="370" style="fill:none;stroke:black;"/>
   <text width="109" height="20" x="555" y="384" style="fill:black;" font-family="Arial" font-size="16px">skin_color</text>
   <rect width="109" height="20" x="550" y="390" style="fill:none;stroke:black;"/>
   <text width="109" height="20" x="555" y="404" style="fill:black;" font-family="Arial" font-size="16px">skin_color_hex</text>
   <rect width="109" height="20" x="550" y="410" style="fill:none;stroke:black;"/>
   <text width="109" height="20" x="555" y="424" style="fill:black;" font-family="Arial" font-size="16px">leftright</text>
   <rect width="109" height="20" x="550" y="430" style="fill:none;stroke:black;"/>
   <text width="109" height="20" x="555" y="444" style="fill:black;" font-family="Arial" font-size="16px">posture</text>
   <rect width="109" height="20" x="550" y="450" style="fill:none;stroke:black;"/>
   <text width="109" height="20" x="555" y="464" style="fill:black;" font-family="Arial" font-size="16px">description</text>
   <rect width="116" height="20" x="840" y="10" style="fill:#007;stroke:black;"/>
   <text width="116" height="20" x="845" y="24" style="fill:#fff;" font-family="Arial" font-size="16px"> nendoroids</text>
   <rect width="116" height="20" x="840" y="30" style="fill:#aea;stroke:black;"/>
   <text width="116" height="20" x="845" y="44" style="fill:black;" font-family="Arial" font-size="16px">internalid</text>
   <rect width="116" height="20" x="840" y="50" style="fill:none;stroke:black;"/>
   <text width="116" height="20" x="845" y="64" style="fill:black;" font-family="Arial" font-size="16px">box_id</text>
   <rect width="116" height="20" x="840" y="70" style="fill:none;stroke:black;"/>
   <text width="116" height="20" x="845" y="84" style="fill:black;" font-family="Arial" font-size="16px">name</text>
   <rect width="116" height="20" x="840" y="90" style="fill:none;stroke:black;"/>
   <text width="116" height="20" x="845" y="104" style="fill:black;" font-family="Arial" font-size="16px">origin</text>
   <rect width="116" height="20" x="840" y="110" style="fill:none;stroke:black;"/>
   <text width="116" height="20" x="845" y="124" style="fill:black;" font-family="Arial" font-size="16px">version</text>
   <rect width="116" height="20" x="840" y="130" style="fill:none;stroke:black;"/>
   <text width="116" height="20" x="845" y="144" style="fill:black;" font-family="Arial" font-size="16px">editor</text>
   <rect width="116" height="20" x="840" y="150" style="fill:none;stroke:black;"/>
   <text width="116" height="20" x="845" y="164" style="fill:black;" font-family="Arial" font-size="16px">dominant_color</text>
</svg>
